<?xml version="1.0" encoding="UTF-8"?>
<svg xmlns="http://www.w3.org/2000/svg" version="1.1" viewBox="0 0 384 512">
  <defs>
    <style>
      .cls-1 {
        fill: #df9600;
        isolation: isolate;
        opacity: .4;
      }
    </style>
  </defs>
  <!-- Generator: Adobe Illustrator 28.6.0, SVG Export Plug-In . SVG Version: 1.2.0 Build 709)  -->
  <g>
    <g id="Layer_1">
      <path class="cls-1" d="M16,176c0,37.3,11.6,71.9,31.4,100.3,5,7.2,10.2,14.3,15.4,21.4,19.8,27.1,39.7,54.4,49.2,86.2h160c9.6-31.9,29.5-59.1,49.2-86.2,5.2-7.1,10.4-14.2,15.4-21.4,19.8-28.5,31.4-63,31.4-100.3C368,78.8,289.2,0,192,0S16,78.8,16,176ZM80,176c0-61.9,50.1-112,112-112s16,7.2,16,16-7.2,16-16,16c-44.2,0-80,35.8-80,80s-7.2,16-16,16-16-7.2-16-16Z"/>
      <path d="M192,512c44.2,0,80-35.8,80-80v-48H112v48c0,44.2,35.8,80,80,80Z"/>
    </g>
  </g>
</svg>